<svg xmlns="http://www.w3.org/2000/svg">
  <symbol id="search" viewBox="0 0 16 16" fill="currentColor">
    <path fill-rule="evenodd" clip-rule="evenodd" d="M11 6.5C11 8.98528 8.98528 11 6.5 11C4.01472 11 2 8.98528 2 6.5C2 4.01472 4.01472 2 6.5 2C8.98528 2 11 4.01472 11 6.5ZM10.3347 11.7489C9.25973 12.5356 7.9341 13 6.5 13C2.91015 13 0 10.0899 0 6.5C0 2.91015 2.91015 0 6.5 0C10.0899 0 13 2.91015 13 6.5C13 7.9341 12.5356 9.25973 11.7489 10.3347L15.7071 14.2929L14.2929 15.7071L10.3347 11.7489Z" />
  </symbol>

  <symbol  id="cart" viewBox="0 0 16 16" fill="currentColor">
    <path fill-rule="evenodd" clip-rule="evenodd" d="M3.09071 6L3.57593 0.90519L3.66214 0H4.57143H11.4286H12.3379L12.4241 0.905191L12.9093 6H14.5H15.6328L15.4923 7.12403L14.4923 15.124L14.3828 16H13.5H2.5H1.61722L1.50772 15.124L0.507722 7.12403L0.367218 6H1.5H3.09071ZM5.09976 6H10.9002L10.5193 2H5.48072L5.09976 6ZM3.38278 14L2.63278 8H13.3672L12.6172 14H3.38278ZM8.5 9.5V12.5H10.5V9.5H8.5ZM5.5 12.5L5.5 9.5H7.5L7.5 12.5H5.5Z"/>
  </symbol>

  <symbol  id="login" viewBox="0 0 16 16" fill="currentColor">
    <path fill-rule="evenodd" clip-rule="evenodd" d="M9 2H14V14H9V16H15H16V15V1V0H15H9V2ZM4.29289 3.70711L7.53553 6.94975H0V8.94975H7.53553L4.29289 12.1924L5.70711 13.6066L10.6569 8.65685L11.364 7.94975L10.6569 7.24264L5.70711 2.29289L4.29289 3.70711Z"/>  
  </symbol>

  <symbol id="twitter" viewBox="0 0 16 16" fill="currentColor">
    <path fill-rule="evenodd" clip-rule="evenodd" d="M15.5185 2.50029C15.269 2.61093 15.0126 2.7043 14.7505 2.78011C15.0608 2.42925 15.2973 2.01641 15.4417 1.56465C15.474 1.46339 15.4405 1.35255 15.3573 1.28632C15.2741 1.22004 15.1586 1.2121 15.0671 1.26635C14.5106 1.59641 13.9102 1.83361 13.2806 1.97231C12.6465 1.35265 11.7852 1 10.8948 1C9.01523 1 7.4861 2.52908 7.4861 4.40855C7.4861 4.55658 7.49548 4.70379 7.51402 4.84894C5.1817 4.64416 3.0134 3.49781 1.52443 1.67134C1.47136 1.60624 1.38962 1.57116 1.30592 1.57787C1.22218 1.58442 1.14693 1.63165 1.10463 1.70423C0.802632 2.22242 0.642978 2.81509 0.642978 3.41811C0.642978 4.23942 0.936214 5.01869 1.4542 5.62759C1.2967 5.57304 1.14386 5.50487 0.997986 5.42389C0.91967 5.3803 0.824093 5.38097 0.74629 5.42558C0.668435 5.47019 0.619622 5.55225 0.617573 5.64193C0.617215 5.65704 0.617215 5.67215 0.617215 5.68747C0.617215 6.91343 1.27703 8.01717 2.28582 8.61875C2.19915 8.6101 2.11254 8.59755 2.02649 8.5811C1.93777 8.56415 1.84655 8.59524 1.78673 8.6629C1.7268 8.73051 1.70698 8.82476 1.73458 8.91081C2.10798 10.0766 3.06933 10.9341 4.23152 11.1955C3.26761 11.7992 2.16529 12.1155 1.00813 12.1155C0.766675 12.1155 0.52384 12.1013 0.286178 12.0731C0.168116 12.0591 0.0552263 12.1288 0.0150184 12.2411C-0.0251895 12.3534 0.0174257 12.4787 0.117869 12.543C1.60443 13.4962 3.32333 14 5.08864 14C8.55901 14 10.73 12.3635 11.9401 10.9907C13.449 9.27883 14.3144 7.013 14.3144 4.77421C14.3144 4.68068 14.313 4.58624 14.3101 4.49209C14.9055 4.04356 15.418 3.50072 15.8351 2.87681C15.8985 2.78205 15.8916 2.65682 15.8182 2.56959C15.7449 2.48231 15.6227 2.45409 15.5185 2.50029Z"/>
  </symbol>

  <symbol id="vk" viewBox="0 0 16 16" fill="currentColor">
    <path fill-rule="evenodd" clip-rule="evenodd" d="M15.9151 12.027C15.8955 11.9805 15.8775 11.943 15.8612 11.9126C15.5836 11.3653 15.0529 10.6929 14.2692 9.89534L14.2529 9.87746L14.2447 9.86852L14.2365 9.85958H14.2284C13.8724 9.4876 13.6471 9.23903 13.554 9.11206C13.3809 8.86885 13.3434 8.62206 13.4365 8.37348C13.5034 8.18571 13.7532 7.78691 14.1859 7.17888C14.4145 6.85699 14.5941 6.59768 14.728 6.40275C15.6897 5.00429 16.1061 4.11013 15.9771 3.72027L15.9281 3.62907C15.8955 3.57363 15.8089 3.52356 15.6701 3.47885C15.5314 3.43235 15.3534 3.4252 15.1362 3.4556L12.7376 3.47349C12.6984 3.45918 12.6429 3.45918 12.5711 3.47885C12.4992 3.49673 12.4633 3.50568 12.4633 3.50568L12.4208 3.52892L12.3882 3.55575C12.3604 3.57363 12.3294 3.60582 12.2967 3.65232C12.2641 3.69703 12.2363 3.75068 12.2135 3.81148C11.9522 4.54827 11.6551 5.2314 11.322 5.86447C11.1162 6.2418 10.9284 6.56907 10.7554 6.84626C10.5839 7.12345 10.4386 7.32731 10.3227 7.45786C10.2067 7.58841 10.1006 7.69392 10.0059 7.77261C9.9112 7.85129 9.83936 7.88527 9.78874 7.87275C9.73812 7.86023 9.69077 7.84772 9.64669 7.83699C9.56831 7.78155 9.50626 7.70823 9.45891 7.61345C9.41156 7.51866 9.3789 7.40064 9.36258 7.25757C9.34625 7.1145 9.33645 6.99111 9.33319 6.88739C9.32992 6.78367 9.33155 6.63702 9.33808 6.44925C9.34461 6.26148 9.34625 6.13272 9.34625 6.06655C9.34625 5.83586 9.35115 5.5837 9.35931 5.31367C9.36747 5.04363 9.37401 4.82903 9.38054 4.66987C9.38544 4.5125 9.3887 4.3444 9.3887 4.16735C9.3887 3.99031 9.3789 3.85261 9.35931 3.75246C9.33972 3.65232 9.31033 3.55396 9.27277 3.46097C9.23358 3.36619 9.17643 3.29287 9.10133 3.24279C9.02622 3.19093 8.93315 3.1498 8.82211 3.1194C8.52821 3.04608 8.15266 3.00673 7.6971 3.00137C6.66353 2.98885 6.0006 3.06217 5.7067 3.22133C5.59077 3.2875 5.48463 3.3787 5.38993 3.49495C5.29033 3.62907 5.27563 3.70239 5.34748 3.71312C5.68057 3.76856 5.91733 3.89911 6.05612 4.10476L6.10674 4.21385C6.14593 4.29254 6.18511 4.43381 6.22267 4.63411C6.26186 4.8344 6.28635 5.05615 6.29778 5.29936C6.32553 5.74286 6.32553 6.12378 6.29778 6.44031C6.27002 6.75684 6.24389 7.00363 6.2194 7.17888C6.19491 7.35593 6.15735 7.49899 6.10674 7.60808C6.05612 7.71717 6.02346 7.78512 6.00714 7.80837C5.99081 7.83341 5.97611 7.84772 5.96631 7.85308C5.89447 7.88348 5.81936 7.89958 5.74099 7.89958C5.66261 7.89958 5.56954 7.85666 5.45851 7.77261C5.34748 7.68677 5.23155 7.57053 5.11235 7.4221C4.99316 7.27366 4.85763 7.06443 4.70741 6.79618C4.55719 6.52794 4.40208 6.2114 4.24043 5.84659L4.10654 5.58191C4.02326 5.41202 3.90896 5.16345 3.76528 4.83797C3.62159 4.5125 3.4926 4.19776 3.38156 3.89374C3.33748 3.76677 3.27053 3.66841 3.18236 3.60224L3.13991 3.57542C3.11215 3.55038 3.06806 3.52535 3.00602 3.49852C2.9456 3.4717 2.88029 3.45203 2.81498 3.43951L0.532298 3.45739C0.298806 3.45739 0.140422 3.51462 0.0571486 3.63086L0.0244923 3.6863C0.00816409 3.7167 0 3.76498 0 3.83294C0 3.89911 0.0163282 3.98137 0.0506173 4.07973C0.383712 4.93812 0.746198 5.76432 1.13807 6.56191C1.52995 7.3595 1.86958 8.00151 2.15858 8.48793C2.44759 8.97436 2.7415 9.43395 3.04194 9.86494C3.34238 10.2977 3.53995 10.5731 3.63792 10.6947C3.73589 10.8163 3.811 10.9075 3.86651 10.9683L4.07551 11.1865C4.2094 11.3332 4.40534 11.5066 4.66333 11.7105C4.92131 11.9144 5.20705 12.1146 5.52219 12.3132C5.83569 12.5099 6.20144 12.6726 6.61781 12.796C7.03418 12.9212 7.43912 12.9713 7.83426 12.9462H8.79272C8.98703 12.9283 9.13398 12.8604 9.23358 12.7459L9.26624 12.6994C9.2891 12.6637 9.30869 12.6064 9.32829 12.5313C9.34788 12.4544 9.35768 12.3722 9.35768 12.281C9.35278 12.0199 9.37074 11.7838 9.41156 11.5746C9.45238 11.3653 9.49973 11.2062 9.55362 11.1007C9.60587 10.9934 9.66628 10.904 9.73323 10.8324C9.80017 10.7591 9.84752 10.7144 9.87528 10.7001C9.90304 10.684 9.92426 10.675 9.94223 10.6679C10.0761 10.6196 10.2329 10.6661 10.4125 10.8092C10.5937 10.9522 10.7619 11.1293 10.9203 11.3385C11.0787 11.5477 11.2681 11.7838 11.4901 12.0449C11.7122 12.306 11.9065 12.5009 12.0731 12.6297L12.2396 12.7388C12.3506 12.8121 12.496 12.8783 12.6723 12.9391C12.8503 12.9999 13.0054 13.016 13.1393 12.9838L15.2717 12.948C15.4824 12.948 15.6473 12.9104 15.7632 12.8336C15.8792 12.7567 15.9494 12.6744 15.9722 12.5832C15.9951 12.492 15.9951 12.3883 15.9771 12.272C15.9543 12.154 15.9347 12.0717 15.9151 12.027Z"/>
  </symbol>

  <symbol id="facebook" viewBox="0 0 16 16" fill="currentColor">
    <path fill-rule="evenodd" clip-rule="evenodd" d="M11.6987 1.00291L9.77991 1C7.62416 1 6.23102 2.35233 6.23102 4.44542V6.03399H4.30172C4.135 6.03399 4 6.16187 4 6.3196V8.62126C4 8.77899 4.13516 8.90672 4.30172 8.90672H6.23102V14.7145C6.23102 14.8723 6.36603 15 6.53274 15H9.04993C9.21665 15 9.35165 14.8721 9.35165 14.7145V8.90672H11.6075C11.7742 8.90672 11.9092 8.77899 11.9092 8.62126L11.9101 6.3196C11.9101 6.24386 11.8782 6.17133 11.8217 6.11773C11.7652 6.06414 11.6883 6.03399 11.6082 6.03399H9.35165V4.68734C9.35165 4.04008 9.51467 3.71151 10.4058 3.71151L11.6984 3.71107C11.865 3.71107 12 3.58319 12 3.4256V1.28838C12 1.13094 11.8652 1.0032 11.6987 1.00291Z"/>
  </symbol>

</svg>




