<svg xmlns="http://www.w3.org/2000/svg">
  <symbol id="search" viewBox="0 0 16 16" fill="currentColor">
    <path fill-rule="evenodd" clip-rule="evenodd" d="M11 6.5C11 8.98528 8.98528 11 6.5 11C4.01472 11 2 8.98528 2 6.5C2 4.01472 4.01472 2 6.5 2C8.98528 2 11 4.01472 11 6.5ZM10.3347 11.7489C9.25973 12.5356 7.9341 13 6.5 13C2.91015 13 0 10.0899 0 6.5C0 2.91015 2.91015 0 6.5 0C10.0899 0 13 2.91015 13 6.5C13 7.9341 12.5356 9.25973 11.7489 10.3347L15.7071 14.2929L14.2929 15.7071L10.3347 11.7489Z" />
  </symbol>

  <symbol  id="cart" viewBox="0 0 16 16" fill="currentColor">
    <path fill-rule="evenodd" clip-rule="evenodd" d="M3.09071 6L3.57593 0.90519L3.66214 0H4.57143H11.4286H12.3379L12.4241 0.905191L12.9093 6H14.5H15.6328L15.4923 7.12403L14.4923 15.124L14.3828 16H13.5H2.5H1.61722L1.50772 15.124L0.507722 7.12403L0.367218 6H1.5H3.09071ZM5.09976 6H10.9002L10.5193 2H5.48072L5.09976 6ZM3.38278 14L2.63278 8H13.3672L12.6172 14H3.38278ZM8.5 9.5V12.5H10.5V9.5H8.5ZM5.5 12.5L5.5 9.5H7.5L7.5 12.5H5.5Z"/>
  </symbol>

  <symbol  id="login" viewBox="0 0 16 16" fill="currentColor">
    <path fill-rule="evenodd" clip-rule="evenodd" d="M9 2H14V14H9V16H15H16V15V1V0H15H9V2ZM4.29289 3.70711L7.53553 6.94975H0V8.94975H7.53553L4.29289 12.1924L5.70711 13.6066L10.6569 8.65685L11.364 7.94975L10.6569 7.24264L5.70711 2.29289L4.29289 3.70711Z"/>  
  </symbol>
</svg>



